<?xml version="1.0" encoding="utf-8"?>
<!-- Generator: Adobe Illustrator 24.2.0, SVG Export Plug-In . SVG Version: 6.00 Build 0)  -->
<svg version="1.1" id="Layer_1" xmlns="http://www.w3.org/2000/svg" xmlns:xlink="http://www.w3.org/1999/xlink" x="0px" y="0px"
	 viewBox="0 0 1000 1000" style="enable-background:new 0 0 1000 1000;" xml:space="preserve">
<style type="text/css">
	.st0{fill:#374649;}
	.st1{fill:#23A0C8;}
	.st2{fill:#38B1D9;}
	.st3{fill:#1F82A6;}
	.st4{fill:#1C92B5;}
	.st5{fill:#23A3C2;}
	.st6{fill:#35BCDF;}
	.st7{fill:#D3EDEC;}
	.st8{fill:#BEDAD8;}
</style>
<g>
	<path class="st0" d="M220.5,709v-51.3c0-6.7,4.2-12.1,11.2-12.1h1.9c7,0,11.2,5.4,11.2,12.1v107.9c0,26.3-13,47.3-35.7,60.6
		c-10.4,6.1-22.2,9.4-34.3,9.4H170c-26.3,0-47.2-13-60.6-35.7c-6.2-10.4-9.4-22.2-9.3-34.3v-4.8c0-26.3,13-47.3,35.6-60.6
		c10.4-6.2,22.2-9.4,34.3-9.4h4.8C192.6,690.9,207.7,697.8,220.5,709L220.5,709z M124.3,763.3c0,19,9.2,33.3,25.9,42.4
		c6.7,3.7,14,5.7,21.7,5.7c18.7,0,32.5-8.8,42-24.6c4.4-7.4,6.5-15.4,6.5-24c0-16.5-7.8-29.3-21.1-38.9c-8.1-5.8-17.1-8.7-27-8.7
		c-20.3,0-35,10.3-43.8,28.5C125.7,749.9,124.3,756.5,124.3,763.3L124.3,763.3z M329,690.9h3.4c28.1,0,49.5,13.6,63.1,38.2
		c5.4,9.8,8.3,20.5,8.3,31.8v4.8c0,26.3-13,47.3-35.7,60.6c-10.5,6.2-22.1,9.3-34.3,9.3H329c-26.3,0-47.2-13-60.6-35.7
		c-6.2-10.4-9.4-22.2-9.4-34.3v-4.8c0-26.3,13.1-47.2,35.6-60.6C305.2,694,316.8,690.9,329,690.9L329,690.9z M283.3,763.3
		c0,18.5,9.1,32,24.6,41.6c7.3,4.5,15.4,6.5,23.9,6.5c18.2,0,31.7-9.2,41.1-24.6c4.5-7.3,6.5-15.4,6.5-23.9
		c0-17.2-8.3-30.3-22.4-39.8c-7.7-5.2-16.4-7.8-25.7-7.8c-20.3,0-35,10.3-43.8,28.5C284.7,749.9,283.3,756.5,283.3,763.3
		L283.3,763.3z M504.6,717.2c-3.7-1.7-10.5-2.3-14.5-2.4c-20.3-0.8-35,10.7-43.6,28.5c-3,6.2-4.3,12.7-4.3,19.5
		c0,20.8,10.9,35.4,29.5,44.2c6.8,3.2,15.5,3.9,22.9,3.9c6.5,0,15.7-4,21.5-6.7l1-0.5h4.5l0.5,0.1c5.5,1.1,9.7,4.6,9.7,10.6v2.4
		c0,14.8-27,18.2-37.3,18.9c-36.4,2.5-63.6-17.5-73.9-52.2c-1.8-6-2.6-12-2.6-18.3v-4.8c0-26.3,13.1-47.2,35.6-60.6
		c10.5-6.2,22.1-9.4,34.3-9.4h4.8c12.9,0,24.9,3.7,35.5,11l0.9,0.6l0.6,0.9c1.2,1.9,2.1,4.1,2.1,6.4v2.4c0,6.2-4.6,9.5-10.2,10.6
		l-0.5,0.1h-1.4C516.1,722.4,507.9,718.7,504.6,717.2L504.6,717.2z M583.4,733.6c9.4-9.4,18.9-18.9,28.5-28.2
		c2.7-2.6,12.8-13.6,16.7-13.6h4.3l0.5,0.1c5.5,1.1,9.7,4.7,9.7,10.6v2.4c0,4.1-4.8,8.8-7.4,11.6c-5.6,5.9-11.4,11.6-17.2,17.4
		l-29.3,29.8c12.6,12.7,25.2,25.3,37.8,38.1c3.5,3.5,6.9,7.1,10.3,10.6c1.2,1.3,3,2.8,4,4.6c1.1,1.6,1.8,3.5,1.8,5.5v2.5l-0.1,0.6
		c-1.4,5.5-4.9,10-11,10H630c-4,0-8.6-4.5-11.3-7.1c-5.7-5.3-11.1-11-16.7-16.4l-18.6-18.3V823c0,6.7-4.2,12.1-11.2,12.1h-1.9
		c-7,0-11.2-5.4-11.2-12.1V658.3c0-6.7,4.2-12.1,11.2-12.1h1.9c7,0,11.2,5.4,11.2,12.1V733.6L583.4,733.6z M885.9,691.9h2.4
		c7.3,0,12.1,4.9,12.1,12.1c0,10-9.6,12.6-17.9,12.6c-10.9,0-21.3,6.6-28.8,14c-9.4,9.2-13.5,21.1-13.5,34.1v58.8
		c0,6.7-4.2,12.1-11.2,12.1h-1.9c-7,0-11.2-5.4-11.2-12.1v-62.1c0-23.9,11.6-43.3,31-57C858.5,696.2,871.8,691.9,885.9,691.9
		L885.9,691.9z M713.4,808.4c8.8,3.1,18.9,2.6,28,1.1c4.6-2,16.5-7.1,20.9-6.4l0.7,0.1l0.6,0.3c2.7,1.3,5.2,3.1,6.6,5.8
		c3.2,6.4,1.7,12.7-4.6,16.3l-2.1,1.2c-23,13.3-47.5,11.4-70.5-1c-11-5.9-19.4-14.7-25.6-25.5l-1.4-2.5
		c-14.8-25.6-12.8-52.5,3.9-76.9c5.8-8.4,13.3-14.9,22.1-20l3.3-1.9c21.7-12.5,44.9-11.7,67.2-0.7c12,5.9,21.7,14.7,28.4,26.3
		l1.2,2.1c4.9,8.4-1.4,15.7-7.9,20.8c-7.5,5.8-15.1,12.8-22.4,19C745.6,780.5,729.5,794.4,713.4,808.4L713.4,808.4z M692.6,793.7
		c18-15.4,36-30.9,54-46.4c6.1-5.3,12.9-10.8,19-16.4c-4.9-6.2-13.1-10.6-20-13.2c-14-5.3-27.8-3.5-40.7,3.9
		c-16.8,9.7-24,25.2-23.3,44.4c0.3,7.6,2.3,14.9,6.3,21.3C689.3,789.5,690.8,791.7,692.6,793.7z M561.6,307.3h71.6v73.2h36.2
		c16.7,0,33.9-3,49.8-8.3c7.8-2.6,16.5-6.3,24.2-10.9c-10.1-13.2-15.3-29.9-16.8-46.3c-2.1-22.4,2.4-51.4,17.6-68.9l7.5-8.7l9,7.2
		c22.6,18.1,41.6,43.5,44.9,72.4c27.2-8,59.1-6.1,83.1,7.7l9.8,5.7l-5.2,10.1c-20.3,39.6-62.7,51.8-104.1,49.7
		c-62,154.5-197,227.6-360.8,227.6c-84.6,0-162.2-31.6-206.4-106.7l-0.7-1.2l-6.4-13.1c-14.9-33-19.9-69.2-16.5-105.4l1-10.8h61.3
		v-73.2h71.6v-71.6h143.3V164h86V307.3"/>
	<path class="st1" d="M793.6,334.4c4.8-37.3-23.1-66.6-40.5-80.6c-20,23.1-23.1,83.6,8.3,109c-17.5,15.5-54.3,29.6-92,29.6H210.3
		c-3.7,39.4,3.2,75.6,19,106.7l5.2,9.6c3.3,5.6,6.9,11,10.8,16.2c18.9,1.2,36.3,1.6,52.2,1.3h0c31.3-0.7,56.8-4.4,76.2-11.1
		c2.9-0.9,6,0.7,6.9,3.6c0.9,2.8-0.6,5.7-3.3,6.8c-2.6,0.9-5.3,1.7-8,2.5h0c-15.2,4.4-31.6,7.3-52.6,8.6c1.3,0-1.3,0.2-1.3,0.2
		c-0.7,0-1.6,0.2-2.3,0.2c-8.3,0.5-17.2,0.6-26.4,0.6c-10,0-19.9-0.2-30.9-0.8l-0.3,0.2c38.3,43,98.1,68.8,173,68.8
		c158.7,0,293.3-70.3,352.9-228.2c42.3,4.3,82.9-6.4,101.4-42.5C853.3,318,815.4,323.4,793.6,334.4"/>
	<path class="st2" d="M793.6,334.4c4.8-37.3-23.1-66.6-40.5-80.6c-20,23.1-23.1,83.6,8.3,109c-17.5,15.5-54.3,29.6-92,29.6H237.5
		c-1.9,60.3,20.5,106.1,60.1,133.7h0c31.3-0.7,56.8-4.4,76.2-11.1c2.9-0.9,6,0.7,6.9,3.6c0.9,2.8-0.6,5.7-3.3,6.8
		c-2.6,0.9-5.3,1.7-8,2.5h0c-15.2,4.4-33,7.7-54.1,9c0,0-0.5-0.5-0.5-0.5c54,27.7,132.3,27.6,222.1-6.9
		C637.5,490.9,731.2,417.2,796.5,333C795.5,333.4,794.6,333.9,793.6,334.4"/>
	<path class="st3" d="M211.2,440.3c2.9,21.1,9,40.8,18.2,58.8l5.2,9.6c3.3,5.6,6.9,11,10.8,16.2c18.9,1.2,36.3,1.6,52.2,1.3
		c31.3-0.7,56.8-4.4,76.2-11.1c2.9-0.9,6,0.7,6.9,3.6c0.9,2.8-0.6,5.7-3.3,6.8c-2.6,0.9-5.3,1.7-8,2.5h0c-15.2,4.4-32.9,7.5-54,8.8
		c-0.7,0-2,0.1-2.7,0.1c-8.3,0.5-17.2,0.7-26.3,0.7c-10,0-20.2-0.2-31.3-0.8c38.3,43,98.4,68.9,173.4,68.9
		c135.8,0,254-51.6,322.6-165.5H211.2"/>
	<path class="st4" d="M241.6,440.3c8.1,37,27.6,66.1,56,85.9c31.3-0.7,56.8-4.4,76.2-11.1c2.9-0.9,6,0.7,6.9,3.6
		c0.9,2.8-0.6,5.7-3.3,6.8c-2.6,0.9-5.3,1.7-8,2.5h0c-15.2,4.4-33.3,7.5-54.3,8.8c54,27.7,132.1,27.3,221.8-7.2
		c54.3-20.9,106.6-51.9,153.5-89.3H241.6"/>
	<path class="st5" d="M272.6,319.2h62.1v62.1h-62.1V319.2z M277.8,324.4h4.9v51.7h-4.9V324.4z M287,324.4h5.1v51.7H287L287,324.4
		L287,324.4z M296.4,324.4h5.1v51.7h-5.1V324.4z M305.8,324.4h5.1v51.7h-5.1V324.4z M315.2,324.4h5.1v51.7h-5.1L315.2,324.4
		L315.2,324.4z M324.6,324.4h4.9v51.7h-4.9V324.4z M344.3,247.6h62.1v62.1h-62.1L344.3,247.6L344.3,247.6z M349.4,252.7h4.9v51.7
		h-4.9V252.7z M358.6,252.7h5.1v51.7h-5.1L358.6,252.7L358.6,252.7z M368,252.7h5.1v51.7H368V252.7z M377.5,252.7h5.1v51.7h-5.1
		V252.7z M386.9,252.7h5.1v51.7h-5.1V252.7z M396.3,252.7h4.9v51.7h-4.9V252.7z"/>
	<path class="st6" d="M344.3,319.2h62.1v62.1h-62.1L344.3,319.2L344.3,319.2z M349.4,324.4h4.9v51.7h-4.9V324.4z M358.6,324.4h5.1
		v51.7h-5.1L358.6,324.4L358.6,324.4z M368,324.4h5.1v51.7H368V324.4z M377.5,324.4h5.1v51.7h-5.1V324.4z M386.9,324.4h5.1v51.7
		h-5.1V324.4z M396.3,324.4h4.9v51.7h-4.9V324.4z"/>
	<path class="st5" d="M415.9,319.2H478v62.1h-62.1V319.2z M421.1,324.4h4.9v51.7h-4.9V324.4z M430.3,324.4h5.1v51.7h-5.1V324.4z
		 M439.7,324.4h5.1v51.7h-5.1V324.4z M449.1,324.4h5.1v51.7h-5.1V324.4z M458.5,324.4h5.1v51.7h-5.1V324.4z M467.9,324.4h4.9v51.7
		h-4.9V324.4z"/>
	<path class="st6" d="M415.9,247.6H478v62.1h-62.1V247.6z M421.1,252.7h4.9v51.7h-4.9V252.7z M430.3,252.7h5.1v51.7h-5.1V252.7z
		 M439.7,252.7h5.1v51.7h-5.1V252.7z M449.1,252.7h5.1v51.7h-5.1V252.7z M458.5,252.7h5.1v51.7h-5.1V252.7z M467.9,252.7h4.9v51.7
		h-4.9V252.7z M487.5,319.2h62.1v62.1h-62.1V319.2z M492.7,324.4h4.9v51.7h-4.9V324.4z M501.9,324.4h5.1v51.7h-5.1V324.4z
		 M511.3,324.4h5.1v51.7h-5.1V324.4z M520.7,324.4h5.1v51.7h-5.1V324.4z M530.1,324.4h5.1v51.7h-5.1V324.4z M539.5,324.4h4.9v51.7
		h-4.9V324.4z"/>
	<path class="st5" d="M487.5,247.6h62.1v62.1h-62.1V247.6z M492.7,252.7h4.9v51.7h-4.9V252.7z M501.9,252.7h5.1v51.7h-5.1V252.7z
		 M511.3,252.7h5.1v51.7h-5.1V252.7z M520.7,252.7h5.1v51.7h-5.1V252.7z M530.1,252.7h5.1v51.7h-5.1V252.7z M539.5,252.7h4.9v51.7
		h-4.9V252.7z"/>
	<path class="st6" d="M487.5,175.9h62.1V238h-62.1V175.9z M492.7,181.1h4.9v51.7h-4.9V181.1L492.7,181.1z M501.9,181.1h5.1v51.7
		h-5.1V181.1L501.9,181.1z M511.3,181.1h5.1v51.7h-5.1V181.1L511.3,181.1z M520.7,181.1h5.1v51.7h-5.1V181.1L520.7,181.1z
		 M530.1,181.1h5.1v51.7h-5.1V181.1L530.1,181.1z M539.5,181.1h4.9v51.7h-4.9V181.1L539.5,181.1z"/>
	<path class="st5" d="M559.2,319.2h62.1v62.1h-62.1V319.2z M564.3,324.4h4.9v51.7h-4.9L564.3,324.4L564.3,324.4z M573.5,324.4h5.1
		v51.7h-5.1L573.5,324.4L573.5,324.4z M583,324.4h5.1v51.7H583V324.4z M592.4,324.4h5.1v51.7h-5.1V324.4z M601.8,324.4h5.1v51.7
		h-5.1V324.4z M611.2,324.4h4.9v51.7h-4.9V324.4z"/>
	<path class="st7" d="M402.5,481.9c9.5-0.1,17.2,7.4,17.4,16.9c0.1,9.5-7.4,17.2-16.9,17.4c-0.2,0-0.3,0-0.5,0
		c-9.5-0.1-17-7.9-16.9-17.4C385.7,489.6,393.2,482.1,402.5,481.9"/>
	<path class="st0" d="M402.5,486.8c1.6,0,3.1,0.3,4.4,0.8c-2.4,1.4-3.2,4.5-1.8,6.8c0.9,1.5,2.5,2.5,4.3,2.5c1.9,0,3.5-1,4.4-2.6
		c2.6,6.3-0.4,13.4-6.6,16c-6.3,2.6-13.4-0.4-16-6.6c-2.6-6.3,0.4-13.4,6.6-16C399.2,487.1,400.8,486.8,402.5,486.8 M99.5,446.5
		h796.8c-17.3-4.4-54.9-10.3-48.7-33.1C816,449.9,739.9,439,720.7,421c-21.4,31-145.8,19.2-154.5-4.9c-26.8,31.5-109.9,31.5-136.7,0
		C420.9,440.2,296.4,452,275,421c-19.2,18-95.3,28.9-126.8-7.6C154.4,436.1,116.9,442.1,99.5,446.5"/>
	<path class="st8" d="M448,605.4c-42.4-20.1-65.7-47.5-78.7-77.4c-15.8,4.5-34.7,7.4-56.7,8.6c-8.3,0.5-17,0.7-26.2,0.7
		c-10.6,0-21.7-0.3-33.3-0.9c38.9,38.9,86.8,68.8,175.4,69.4C435,605.7,441.5,605.6,448,605.4"/>
	<path class="st7" d="M385.1,555.6c-5.9-8-11.6-18-15.7-27.6c-15.8,4.5-34.7,7.4-56.7,8.6C327.8,544.8,349.4,552.4,385.1,555.6"/>
</g>
</svg>
