<?xml version="1.0" standalone="no"?>
<!DOCTYPE svg PUBLIC "-//W3C//DTD SVG 20010904//EN"
 "http://www.w3.org/TR/2001/REC-SVG-20010904/DTD/svg10.dtd">
<svg version="1.0" xmlns="http://www.w3.org/2000/svg"
 width="413.000000pt" height="484.000000pt" viewBox="0 0 413.000000 484.000000"
 preserveAspectRatio="xMidYMid meet">

<g transform="translate(0.000000,484.000000) scale(0.100000,-0.100000)"
fill="#000000" stroke="none">
<path d="M1805 4084 c-301 -25 -581 -98 -728 -191 -49 -31 -69 -76 -98 -223
-31 -152 -33 -474 -6 -645 61 -375 182 -628 433 -906 165 -183 387 -354 592
-458 l63 -32 87 46 c168 89 313 197 466 345 269 261 417 504 495 815 42 170
55 291 55 510 0 179 -3 227 -23 325 -29 147 -49 192 -98 223 -120 76 -318 136
-563 173 -102 15 -561 27 -675 18z m372 -348 c175 -183 283 -389 334 -635 23
-115 27 -309 5 -317 -16 -6 -138 -26 -307 -50 l-116 -17 -13 -209 c-12 -189
-12 -217 3 -286 10 -42 26 -89 37 -104 18 -24 18 -29 5 -55 -10 -19 -15 -60
-15 -135 0 -112 -5 -124 -42 -95 -11 8 -17 37 -21 97 -8 124 -18 147 -87 203
-152 123 -294 351 -346 557 -28 110 -26 349 4 481 58 258 164 451 346 628 42
41 79 85 83 99 5 22 9 18 39 -38 18 -34 59 -90 91 -124z"/>
<path d="M2808 1242 c-65 -1 -118 -6 -118 -10 0 -4 15 -12 33 -17 l32 -10 3
-194 c3 -201 -1 -221 -39 -221 -11 0 -19 -4 -19 -9 0 -15 165 -24 239 -13 38
5 86 18 106 28 135 64 178 254 83 368 -57 69 -114 83 -320 78z m157 -33 c60
-17 120 -84 134 -151 12 -54 3 -137 -18 -177 -44 -82 -173 -117 -233 -63 -16
13 -18 37 -18 203 0 140 3 189 13 192 22 9 81 7 122 -4z"/>
<path d="M3240 1230 c0 -5 9 -10 19 -10 45 0 51 -21 51 -194 0 -205 -4 -225
-41 -233 -54 -10 -29 -21 65 -28 138 -10 230 13 275 71 49 63 31 149 -39 180
l-38 17 34 32 c54 51 46 128 -16 160 -34 18 -310 22 -310 5z m235 -24 c40 -17
55 -42 55 -90 0 -55 -27 -76 -100 -76 l-60 0 0 83 c0 46 3 87 7 90 11 12 62 8
98 -7z m30 -212 c48 -22 71 -75 56 -126 -16 -53 -61 -81 -120 -75 -62 7 -71
23 -71 129 l0 88 51 0 c28 0 66 -7 84 -16z"/>
<path d="M545 1069 l-60 -16 33 -17 32 -17 0 -104 c0 -103 -1 -106 -25 -117
-44 -20 -27 -28 55 -28 78 0 105 12 55 24 -25 6 -25 8 -25 111 0 96 2 105 22
119 32 23 81 20 104 -5 14 -15 20 -40 22 -95 5 -90 -2 -121 -28 -129 -43 -14
-16 -25 60 -25 78 0 105 12 56 24 -24 6 -25 9 -28 112 -3 118 -1 123 60 131
34 5 42 2 60 -22 19 -24 22 -41 22 -116 0 -84 -1 -88 -27 -108 l-28 -20 83 -1
c84 0 101 8 57 28 -24 11 -25 15 -25 108 0 108 -15 154 -56 173 -37 16 -56 14
-108 -14 l-48 -25 -31 26 c-36 30 -78 29 -126 -5 -36 -26 -39 -26 -43 2 l-3
22 -60 -16z"/>
<path d="M1248 1080 c-103 -31 -146 -139 -95 -240 39 -79 131 -103 217 -57 56
29 80 74 80 148 0 115 -92 182 -202 149z m72 -35 c43 -22 64 -69 65 -142 0
-52 -4 -65 -24 -87 -30 -32 -69 -34 -106 -4 -36 28 -55 76 -55 138 0 44 5 56
29 81 33 33 50 35 91 14z"/>
<path d="M1563 1072 c-29 -8 -53 -18 -53 -21 0 -3 14 -14 30 -23 27 -16 30
-22 30 -70 0 -101 -11 -154 -33 -164 -39 -18 -16 -29 63 -31 60 -2 80 1 80 11
0 7 -11 18 -25 24 -24 11 -25 15 -25 111 0 107 4 116 57 127 65 13 93 -34 93
-153 0 -59 -15 -93 -41 -93 -5 0 -9 -6 -9 -14 0 -11 18 -14 80 -14 63 0 80 3
80 14 0 8 -11 19 -25 24 -24 9 -25 12 -25 106 0 108 -15 154 -56 173 -37 17
-64 13 -111 -14 l-43 -24 0 25 c0 27 3 27 -67 6z"/>
<path d="M2014 1071 c-53 -24 -74 -55 -74 -110 0 -37 5 -49 35 -77 l36 -33
-26 -17 c-30 -20 -31 -31 -5 -59 l21 -22 -36 -27 c-28 -21 -35 -34 -35 -60 0
-97 153 -129 252 -53 53 41 76 94 58 136 -14 36 -44 49 -135 58 -61 7 -70 11
-70 28 0 15 9 21 35 25 47 8 96 38 109 67 6 13 11 41 11 63 0 35 3 39 28 42
19 2 28 9 30 26 3 20 1 21 -21 13 -17 -7 -42 -5 -78 5 -70 18 -86 17 -135 -5z
m93 -33 c20 -22 27 -47 24 -95 -3 -55 -74 -72 -110 -27 -61 78 20 193 86 122z
m40 -299 c33 -12 43 -26 43 -60 0 -39 -32 -62 -95 -67 -50 -4 -57 -2 -85 26
-36 37 -38 55 -5 87 27 28 90 34 142 14z"/>
<path d="M2408 1080 c-103 -31 -146 -139 -95 -240 39 -79 131 -103 217 -57 56
29 80 74 80 148 0 115 -92 182 -202 149z m72 -35 c43 -22 64 -69 65 -142 0
-52 -4 -65 -24 -87 -30 -32 -69 -34 -106 -4 -36 28 -55 76 -55 138 0 44 5 56
29 81 33 33 50 35 91 14z"/>
</g>
</svg>
